<svg width="8" height="14" viewBox="0 0 8 14" fill="none" xmlns="http://www.w3.org/2000/svg">
<path d="M0.783246 13.0496C0.605646 12.872 0.516846 12.6667 0.516846 12.4336C0.516846 12.2 0.605646 11.9944 0.783246 11.8168L5.60005 7.00001L0.766446 2.16641C0.600046 2.00001 0.516846 1.80001 0.516846 1.56641C0.516846 1.33335 0.605646 1.12801 0.783246 0.950412C0.950179 0.783479 1.15311 0.700012 1.39205 0.700012C1.63098 0.700012 1.83365 0.783479 2.00005 0.950412L7.55044 6.50001C7.62778 6.57788 7.68324 6.65841 7.71684 6.74161C7.74991 6.82481 7.76645 6.91094 7.76645 7.00001C7.76645 7.08908 7.74991 7.17521 7.71684 7.25841C7.68324 7.34161 7.62778 7.42215 7.55044 7.50001L1.98325 13.0664C1.80565 13.2445 1.60298 13.328 1.37525 13.3168C1.14751 13.3056 0.950179 13.2165 0.783246 13.0496Z" fill="#B40A17"/>
</svg>