<svg width="16" height="16" viewBox="0 0 16 16" fill="none" xmlns="http://www.w3.org/2000/svg">
<mask id="mask0_1_2491" style="mask-type:alpha" maskUnits="userSpaceOnUse" x="0" y="0" width="16" height="16">
<rect width="16" height="16" fill="#D9D9D9"/>
</mask>
<g mask="url(#mask0_1_2491)">
<path d="M13.3168 14C11.8613 14 10.4531 13.6832 9.092 13.0496C7.7304 12.4165 6.5248 11.5749 5.4752 10.5248C4.42507 9.4752 3.58347 8.2696 2.9504 6.908C2.3168 5.54693 2 4.13867 2 2.6832C2 2.4944 2.06933 2.33333 2.208 2.2C2.3472 2.06667 2.5112 2 2.7 2H5.4664C5.62213 2 5.7584 2.05013 5.8752 2.1504C5.99147 2.25013 6.0608 2.37787 6.0832 2.5336L6.5504 4.9168C6.57227 5.06133 6.56667 5.19467 6.5336 5.3168C6.5 5.43893 6.43893 5.54453 6.3504 5.6336L4.7336 7.2832C5.15547 8.03893 5.7136 8.76667 6.408 9.4664C7.1024 10.1667 7.8664 10.7667 8.7 11.2664L10.2664 9.6664C10.3779 9.55547 10.5003 9.48053 10.6336 9.4416C10.7669 9.40267 10.9112 9.3944 11.0664 9.4168L13.4664 9.9168C13.6221 9.9392 13.7499 10.0085 13.8496 10.1248C13.9499 10.2416 14 10.3779 14 10.5336V13.3C14 13.4888 13.9333 13.6528 13.8 13.792C13.6667 13.9307 13.5056 14 13.3168 14ZM4.0664 5.9504L5.1168 4.9L4.8336 3.4H3.4336C3.48907 3.84427 3.564 4.27493 3.6584 4.692C3.7528 5.10853 3.8888 5.528 4.0664 5.9504ZM12.6 12.5664V11.1664L11.0664 10.8496L10.0168 11.9336C10.4499 12.1 10.8776 12.2333 11.3 12.3336C11.7224 12.4333 12.1557 12.5109 12.6 12.5664Z" fill="black" fill-opacity="0.65"/>
</g>
</svg>
