<svg width="14" height="13" viewBox="0 0 14 13" fill="none" xmlns="http://www.w3.org/2000/svg">
<path d="M0 11.9194V1.4324C0 1.03459 0.136 0.69627 0.408 0.417426C0.680533 0.139127 1.0112 -2.28882e-05 1.4 -2.28882e-05H11.9328C12.3216 -2.28882e-05 12.6523 0.139127 12.9248 0.417426C13.1968 0.69627 13.3328 1.03459 13.3328 1.4324V9.48097C13.3328 9.87877 13.1968 10.2171 12.9248 10.4959C12.6523 10.7742 12.3216 10.9134 11.9328 10.9134H2.6664L1.2 12.4137C0.9776 12.6413 0.721866 12.6953 0.4328 12.5758C0.144267 12.4563 0 12.2375 0 11.9194ZM1.4 10.18L2.0832 9.48097H11.9328V1.4324H1.4V10.18Z" fill="black" fill-opacity="0.65"/>
</svg>
