<svg width="16" height="12" viewBox="0 0 16 12" fill="none" xmlns="http://www.w3.org/2000/svg">
<path d="M5.55 11.575C5.41667 11.575 5.29167 11.554 5.175 11.512C5.05833 11.4707 4.95 11.4 4.85 11.3L0.550001 7C0.366667 6.81667 0.279001 6.579 0.287001 6.287C0.295667 5.99567 0.391667 5.75833 0.575 5.575C0.758334 5.39167 0.991667 5.3 1.275 5.3C1.55833 5.3 1.79167 5.39167 1.975 5.575L5.55 9.15L14.025 0.675002C14.2083 0.491668 14.446 0.400002 14.738 0.400002C15.0293 0.400002 15.2667 0.491668 15.45 0.675002C15.6333 0.858335 15.725 1.09567 15.725 1.387C15.725 1.679 15.6333 1.91667 15.45 2.1L6.25 11.3C6.15 11.4 6.04167 11.4707 5.925 11.512C5.80833 11.554 5.68333 11.575 5.55 11.575Z" fill="black" fill-opacity="0.65"/>
</svg>
