<svg width="14" height="14" viewBox="0 0 14 14" fill="none" xmlns="http://www.w3.org/2000/svg">
<path d="M3.9335 10.3999L8.1335 8.4495C8.21083 8.40523 8.27456 8.35803 8.3247 8.3079C8.37483 8.2583 8.42203 8.19456 8.4663 8.1167L10.3999 3.9335C10.4554 3.82203 10.4415 3.7247 10.3583 3.6415C10.2751 3.5583 10.1778 3.54443 10.0663 3.5999L5.8831 5.5335C5.80523 5.57776 5.7415 5.62496 5.6919 5.6751C5.64176 5.72523 5.59456 5.78896 5.5503 5.8663L3.5999 10.0663C3.54443 10.1778 3.5583 10.2751 3.6415 10.3583C3.7247 10.4415 3.82203 10.4554 3.9335 10.3999ZM6.9999 7.6495C6.8111 7.6495 6.65563 7.58843 6.5335 7.4663C6.41136 7.34416 6.3503 7.1887 6.3503 6.9999C6.3503 6.8111 6.41136 6.65003 6.5335 6.5167C6.65563 6.38336 6.8111 6.3167 6.9999 6.3167C7.1887 6.3167 7.34976 6.38336 7.4831 6.5167C7.61643 6.65003 7.6831 6.8111 7.6831 6.9999C7.6831 7.1887 7.61643 7.34416 7.4831 7.4663C7.34976 7.58843 7.1887 7.6495 6.9999 7.6495ZM6.9999 13.6663C6.07776 13.6663 5.2111 13.4914 4.3999 13.1415C3.5887 12.7916 2.8831 12.3167 2.2831 11.7167C1.6831 11.1167 1.20816 10.4111 0.858296 9.5999C0.508429 8.7887 0.333496 7.92203 0.333496 6.9999C0.333496 6.07776 0.508429 5.2111 0.858296 4.3999C1.20816 3.5887 1.6831 2.8831 2.2831 2.2831C2.8831 1.6831 3.5887 1.20816 4.3999 0.858296C5.2111 0.508429 6.07776 0.333496 6.9999 0.333496C7.92203 0.333496 8.7887 0.508429 9.5999 0.858296C10.4111 1.20816 11.1167 1.6831 11.7167 2.2831C12.3167 2.8831 12.7916 3.5887 13.1415 4.3999C13.4914 5.2111 13.6663 6.07776 13.6663 6.9999C13.6663 7.92203 13.4914 8.7887 13.1415 9.5999C12.7916 10.4111 12.3167 11.1167 11.7167 11.7167C11.1167 12.3167 10.4111 12.7916 9.5999 13.1415C8.7887 13.4914 7.92203 13.6663 6.9999 13.6663ZM6.9999 12.2663C8.45536 12.2663 9.69696 11.7524 10.7247 10.7247C11.7524 9.69696 12.2663 8.45536 12.2663 6.9999C12.2663 5.54443 11.7524 4.30283 10.7247 3.2751C9.69696 2.24736 8.45536 1.7335 6.9999 1.7335C5.54443 1.7335 4.30283 2.24736 3.2751 3.2751C2.24736 4.30283 1.7335 5.54443 1.7335 6.9999C1.7335 8.45536 2.24736 9.69696 3.2751 10.7247C4.30283 11.7524 5.54443 12.2663 6.9999 12.2663Z" fill="black" fill-opacity="0.65"/>
</svg>
