<svg width="16" height="17" viewBox="0 0 16 17" fill="none" xmlns="http://www.w3.org/2000/svg">
<path d="M7.917 12.897C8.167 12.897 8.37533 12.8085 8.542 12.6314C8.70867 12.4543 8.792 12.2378 8.792 11.9817C8.792 11.727 8.70533 11.5108 8.532 11.333C8.358 11.156 8.146 11.0674 7.896 11.0674C7.646 11.0674 7.43767 11.156 7.271 11.333C7.10433 11.5108 7.021 11.727 7.021 11.9817C7.021 12.2378 7.108 12.4543 7.282 12.6314C7.45533 12.8085 7.667 12.897 7.917 12.897ZM7.959 4.49071C8.38967 4.49071 8.73667 4.60444 9 4.83191C9.264 5.05869 9.396 5.35664 9.396 5.72576C9.396 5.96684 9.32667 6.21508 9.188 6.47047C9.04867 6.72585 8.84033 6.97409 8.563 7.21517C8.13233 7.59791 7.82333 7.94558 7.636 8.25817C7.44867 8.57008 7.348 8.88914 7.334 9.21536C7.32 9.37131 7.365 9.50616 7.469 9.61989C7.573 9.73362 7.71533 9.79049 7.896 9.79049C8.06267 9.79049 8.20867 9.73703 8.334 9.6301C8.45867 9.52386 8.535 9.37846 8.563 9.1939C8.60433 8.96712 8.69467 8.75089 8.834 8.54522C8.97267 8.33955 9.19467 8.08076 9.5 7.76885C9.94467 7.34252 10.2433 6.97341 10.396 6.66149C10.5487 6.34958 10.625 6.00192 10.625 5.6185C10.625 4.92317 10.3857 4.36302 9.907 3.93806C9.42767 3.51173 8.799 3.29857 8.021 3.29857C7.507 3.29857 7.04167 3.4123 6.625 3.63976C6.20833 3.86655 5.84033 4.19991 5.521 4.63986C5.43767 4.75359 5.417 4.88128 5.459 5.02294C5.50033 5.16459 5.58367 5.28513 5.709 5.38456C5.83367 5.4983 5.98967 5.53745 6.177 5.50204C6.365 5.46663 6.52133 5.36379 6.646 5.19353C6.81267 4.98037 6.99667 4.81011 7.198 4.68276C7.39933 4.55473 7.653 4.49071 7.959 4.49071ZM7.917 16.1751C6.81967 16.1751 5.792 15.9623 4.834 15.5367C3.87533 15.111 3.03833 14.5362 2.323 13.8123C1.60767 13.0891 1.04167 12.2344 0.625 11.2482C0.208333 10.2621 0 9.20855 0 8.08757C0 6.9666 0.208333 5.91304 0.625 4.92691C1.04167 3.94078 1.60767 3.08609 2.323 2.36283C3.03833 1.6389 3.87533 1.06411 4.834 0.638466C5.792 0.212822 6.81967 0 7.917 0C9.02833 0 10.063 0.212822 11.021 0.638466C11.9797 1.06411 12.8167 1.6389 13.532 2.36283C14.2473 3.08609 14.8097 3.94078 15.219 4.92691C15.629 5.91304 15.834 6.9666 15.834 8.08757C15.834 9.20855 15.629 10.2621 15.219 11.2482C14.8097 12.2344 14.2473 13.0891 13.532 13.8123C12.8167 14.5362 11.9797 15.111 11.021 15.5367C10.063 15.9623 9.02833 16.1751 7.917 16.1751ZM7.917 14.8124C9.76433 14.8124 11.3233 14.1562 12.594 12.8439C13.8647 11.5315 14.5 9.9461 14.5 8.08757C14.5 6.22904 13.8647 4.6436 12.594 3.33126C11.3233 2.01891 9.76433 1.36274 7.917 1.36274C6.09767 1.36274 4.54567 2.01891 3.261 3.33126C1.97633 4.6436 1.334 6.22904 1.334 8.08757C1.334 9.9461 1.97633 11.5315 3.261 12.8439C4.54567 14.1562 6.09767 14.8124 7.917 14.8124Z" fill="black" fill-opacity="0.65"/>
</svg>
