<svg width="13" height="14" viewBox="0 0 13 14" fill="none" xmlns="http://www.w3.org/2000/svg">
<path d="M5.89972 10.0336H6.76692V6.19999H5.89972V10.0336ZM6.33332 5.19999C6.46666 5.19999 6.57786 5.15279 6.66692 5.05839C6.75546 4.96399 6.79972 4.85013 6.79972 4.71679C6.79972 4.59466 6.75546 4.48639 6.66692 4.39199C6.57786 4.29706 6.46666 4.24959 6.33332 4.24959C6.19999 4.24959 6.08879 4.29413 5.99972 4.38319C5.91119 4.47226 5.86692 4.58346 5.86692 4.71679C5.86692 4.85013 5.91119 4.96399 5.99972 5.05839C6.08879 5.15279 6.19999 5.19999 6.33332 5.19999ZM6.33332 13.0664C5.50026 13.0664 4.71412 12.9083 3.97492 12.592C3.23626 12.2752 2.59172 11.8419 2.04132 11.292C1.49146 10.7416 1.05812 10.0971 0.741322 9.35839C0.425055 8.61919 0.266922 7.83306 0.266922 6.99999C0.266922 6.15573 0.425055 5.36693 0.741322 4.63359C1.05812 3.90026 1.49146 3.25839 2.04132 2.70799C2.59172 2.15813 3.23626 1.72479 3.97492 1.40799C4.71412 1.09173 5.50026 0.933594 6.33332 0.933594C7.17759 0.933594 7.96639 1.09173 8.69972 1.40799C9.43306 1.72479 10.0749 2.15813 10.6253 2.70799C11.1752 3.25839 11.6085 3.90293 11.9253 4.64159C12.2416 5.38079 12.3997 6.16693 12.3997 6.99999C12.3997 7.83306 12.2416 8.61919 11.9253 9.35839C11.6085 10.0971 11.1752 10.7416 10.6253 11.292C10.0749 11.8419 9.43039 12.2752 8.69172 12.592C7.95252 12.9083 7.16639 13.0664 6.33332 13.0664ZM6.33332 12.2C7.77759 12.2 9.00532 11.6944 10.0165 10.6832C11.0277 9.672 11.5333 8.44426 11.5333 6.99999C11.5333 5.55573 11.0277 4.32799 10.0165 3.31679C9.00532 2.30559 7.77759 1.79999 6.33332 1.79999C4.88906 1.79999 3.66132 2.30559 2.65012 3.31679C1.63892 4.32799 1.13332 5.55573 1.13332 6.99999C1.13332 8.44426 1.63892 9.672 2.65012 10.6832C3.66132 11.6944 4.88906 12.2 6.33332 12.2Z" fill="black" fill-opacity="0.65"/>
</svg>
