<svg width="12" height="14" viewBox="0 0 12 14" fill="none" xmlns="http://www.w3.org/2000/svg">
<path d="M1.36638 11.6664C1.17758 11.6664 1.01385 11.5971 0.875182 11.4584C0.735982 11.3192 0.666382 11.1552 0.666382 10.9664C0.666382 10.7776 0.735982 10.6139 0.875182 10.4752C1.01385 10.336 1.17758 10.2664 1.36638 10.2664H1.98318V5.6832C1.98318 4.77227 2.26105 3.9584 2.81678 3.2416C3.37198 2.5248 4.08852 2.05547 4.96638 1.8336V1.3664C4.96638 1.07787 5.06638 0.833603 5.26638 0.633603C5.46638 0.433603 5.71092 0.333603 5.99998 0.333603C6.28905 0.333603 6.53358 0.433603 6.73358 0.633603C6.93358 0.833603 7.03358 1.07787 7.03358 1.3664V1.8336C7.91145 2.05547 8.62532 2.5248 9.17518 3.2416C9.72505 3.9584 9.99998 4.77227 9.99998 5.6832V10.2664H10.6336C10.8224 10.2664 10.9861 10.336 11.1248 10.4752C11.264 10.6139 11.3336 10.7776 11.3336 10.9664C11.3336 11.1552 11.264 11.3192 11.1248 11.4584C10.9861 11.5971 10.8224 11.6664 10.6336 11.6664H1.36638ZM5.99998 13.6664C5.62238 13.6664 5.30558 13.5387 5.04958 13.2832C4.79412 13.0277 4.66638 12.7112 4.66638 12.3336H7.33358C7.33358 12.7112 7.20585 13.0277 6.95038 13.2832C6.69438 13.5387 6.37758 13.6664 5.99998 13.6664Z" fill="black" fill-opacity="0.65"/>
</svg>
