<svg width="10" height="16" viewBox="0 0 10 16" fill="none" xmlns="http://www.w3.org/2000/svg">
<path d="M4.00004 13.3333H6.00004C6.08893 13.3333 6.16671 13.3 6.23337 13.2333C6.30004 13.1667 6.33337 13.0889 6.33337 13C6.33337 12.9111 6.30004 12.8333 6.23337 12.7667C6.16671 12.7 6.08893 12.6667 6.00004 12.6667H4.00004C3.91115 12.6667 3.83337 12.7 3.76671 12.7667C3.70004 12.8333 3.66671 12.9111 3.66671 13C3.66671 13.0889 3.70004 13.1667 3.76671 13.2333C3.83337 13.3 3.91115 13.3333 4.00004 13.3333ZM1.66671 15.3333C1.30004 15.3333 0.986263 15.2029 0.725374 14.942C0.464041 14.6807 0.333374 14.3667 0.333374 14V1.99999C0.333374 1.63332 0.464041 1.31932 0.725374 1.05799C0.986263 0.797101 1.30004 0.666656 1.66671 0.666656H8.33337C8.70004 0.666656 9.01404 0.797101 9.27537 1.05799C9.53626 1.31932 9.66671 1.63332 9.66671 1.99999V14C9.66671 14.3667 9.53626 14.6807 9.27537 14.942C9.01404 15.2029 8.70004 15.3333 8.33337 15.3333H1.66671ZM1.66671 10.6667H8.33337V3.99999H1.66671V10.6667Z" fill="black" fill-opacity="0.65"/>
</svg>
