<svg width="14" height="16" viewBox="0 0 14 16" fill="none" xmlns="http://www.w3.org/2000/svg">
<path d="M5.14601 15.25C3.72934 14.8474 2.57301 14.0557 1.67701 12.875C0.781008 11.6944 0.333008 10.347 0.333008 8.83305C0.333008 8.09705 0.447675 7.38872 0.677008 6.70805C0.906341 6.02805 1.23634 5.39605 1.66701 4.81205C1.81967 4.61805 2.02434 4.51405 2.28101 4.50005C2.53834 4.48605 2.76401 4.57638 2.95801 4.77105C3.11134 4.92372 3.19134 5.10772 3.19801 5.32305C3.20467 5.53838 3.13867 5.74338 3.00001 5.93805C2.69467 6.35405 2.46534 6.80872 2.31201 7.30205C2.15934 7.79538 2.08301 8.30572 2.08301 8.83305C2.08301 9.91638 2.38867 10.8854 3.00001 11.74C3.61134 12.594 4.41701 13.1877 5.41701 13.521C5.61101 13.5904 5.77767 13.7154 5.91701 13.896C6.05567 14.0767 6.12501 14.264 6.12501 14.458C6.12501 14.736 6.02767 14.955 5.83301 15.115C5.63901 15.2744 5.41001 15.3194 5.14601 15.25ZM8.85401 15.25C8.59001 15.3194 8.36101 15.2744 8.16701 15.115C7.97234 14.955 7.87501 14.736 7.87501 14.458C7.87501 14.264 7.94434 14.0767 8.08301 13.896C8.22234 13.7154 8.38901 13.5904 8.58301 13.521C9.58301 13.1877 10.3887 12.594 11 11.74C11.6113 10.8854 11.917 9.91638 11.917 8.83305C11.917 7.45838 11.4447 6.29538 10.5 5.34405C9.55534 4.39272 8.40267 3.91705 7.04201 3.91705H7.02101L7.27101 4.16705C7.43767 4.33372 7.52101 4.53505 7.52101 4.77105C7.52101 5.00705 7.43767 5.20838 7.27101 5.37505C7.09034 5.55572 6.88201 5.64605 6.64601 5.64605C6.41001 5.64605 6.20867 5.55572 6.04201 5.37505L4.31201 3.66705C4.21534 3.56972 4.14601 3.46905 4.10401 3.36505C4.06267 3.26038 4.04201 3.15272 4.04201 3.04205C4.04201 2.93072 4.06267 2.82305 4.10401 2.71905C4.14601 2.61438 4.21534 2.51372 4.31201 2.41705L6.04201 0.688049C6.20867 0.521383 6.41001 0.438049 6.64601 0.438049C6.88201 0.438049 7.09034 0.521383 7.27101 0.688049C7.43767 0.868049 7.52101 1.07638 7.52101 1.31305C7.52101 1.54905 7.43767 1.75038 7.27101 1.91705L7.02101 2.16705H7.04201C8.90267 2.16705 10.472 2.81272 11.75 4.10405C13.028 5.39605 13.667 6.97238 13.667 8.83305C13.667 10.347 13.219 11.6944 12.323 12.875C11.427 14.0557 10.2707 14.8474 8.85401 15.25Z" fill="black" fill-opacity="0.65"/>
</svg>
