<svg width="12" height="15" viewBox="0 0 12 15" fill="none" xmlns="http://www.w3.org/2000/svg">
<path d="M2.23756 11.6816C2.23756 11.9011 2.31091 12.0842 2.45762 12.2309C2.60432 12.3776 2.7877 12.4509 3.00776 12.4509C3.2155 12.4509 3.39595 12.3746 3.54911 12.2221C3.70168 12.0695 3.77797 11.8832 3.77797 11.6631C3.77797 11.4548 3.70462 11.2773 3.55791 11.1306C3.4112 10.9839 3.22782 10.9105 3.00776 10.9105C2.80003 10.9105 2.61958 10.9871 2.46642 11.1403C2.31385 11.2928 2.23756 11.4733 2.23756 11.6816ZM7.95909 11.6816C7.95909 11.9011 8.03244 12.0842 8.17914 12.2309C8.32585 12.3776 8.50923 12.4509 8.72929 12.4509C8.93703 12.4509 9.11748 12.3746 9.27064 12.2221C9.42321 12.0695 9.4995 11.8832 9.4995 11.6631C9.4995 11.4548 9.42615 11.2773 9.27944 11.1306C9.13273 10.9839 8.94935 10.9105 8.72929 10.9105C8.52156 10.9105 8.34111 10.9871 8.18795 11.1403C8.03537 11.2928 7.95909 11.4733 7.95909 11.6816ZM2.23756 7.335V8.76538C2.23756 8.97312 2.31385 9.15357 2.46642 9.30673C2.61958 9.4593 2.80003 9.53559 3.00776 9.53559C3.2155 9.53559 3.39595 9.4593 3.54911 9.30673C3.70168 9.15357 3.77797 8.97312 3.77797 8.76538V7.335C3.77797 7.12726 3.70168 6.94682 3.54911 6.79366C3.39595 6.64108 3.2155 6.56479 3.00776 6.56479C2.80003 6.56479 2.61958 6.64108 2.46642 6.79366C2.31385 6.94682 2.23756 7.12726 2.23756 7.335ZM5.09832 10.2503V11.6816C5.09832 11.8893 5.17461 12.0695 5.32718 12.2221C5.48034 12.3746 5.66079 12.4509 5.86853 12.4509C6.07626 12.4509 6.25671 12.3746 6.40987 12.2221C6.56245 12.0695 6.63873 11.8893 6.63873 11.6816V10.2503C6.63873 10.0426 6.56245 9.86245 6.40987 9.70987C6.25671 9.5573 6.07626 9.48101 5.86853 9.48101C5.66079 9.48101 5.48034 9.5573 5.32718 9.70987C5.17461 9.86245 5.09832 10.0426 5.09832 10.2503ZM5.09832 7.335C5.09832 7.55506 5.17168 7.73844 5.31838 7.88515C5.46509 8.03185 5.64847 8.10521 5.86853 8.10521C6.07626 8.10521 6.25671 8.02892 6.40987 7.87634C6.56245 7.72318 6.63873 7.54274 6.63873 7.335C6.63873 7.12726 6.56245 6.94682 6.40987 6.79366C6.25671 6.64108 6.07626 6.56479 5.86853 6.56479C5.66079 6.56479 5.48034 6.64108 5.32718 6.79366C5.17461 6.94682 5.09832 7.12726 5.09832 7.335ZM7.95909 7.335V8.76538C7.95909 8.97312 8.03537 9.15357 8.18795 9.30673C8.34111 9.4593 8.52156 9.53559 8.72929 9.53559C8.93703 9.53559 9.11748 9.4593 9.27064 9.30673C9.42321 9.15357 9.4995 8.97312 9.4995 8.76538V7.335C9.4995 7.12726 9.42321 6.94682 9.27064 6.79366C9.11748 6.64108 8.93703 6.56479 8.72929 6.56479C8.52156 6.56479 8.34111 6.64108 8.18795 6.79366C8.03537 6.94682 7.95909 7.12726 7.95909 7.335ZM1.54041 14.67C1.11262 14.67 0.74908 14.5204 0.4498 14.2211C0.149934 13.9212 0 13.5574 0 13.1296V5.02438C0 4.81665 0.0399041 4.61801 0.119712 4.42846C0.198933 4.23892 0.311897 4.07079 0.458603 3.92409L3.92497 0.458602C4.07167 0.311897 4.2398 0.19864 4.42934 0.118832C4.61889 0.0396106 4.81753 0 5.02526 0H10.1966C10.6244 0 10.988 0.14964 11.2873 0.44892C11.5871 0.748787 11.7371 1.11262 11.7371 1.54041V13.1296C11.7371 13.5574 11.5871 13.9212 11.2873 14.2211C10.988 14.5204 10.6244 14.67 10.1966 14.67H1.54041ZM1.54041 13.1296H10.1966V1.54041H5.04287L1.54041 5.04287V13.1296Z" fill="black" fill-opacity="0.65"/>
</svg>
